<svg width="147" height="36" viewBox="0 0 147 36" fill="none" xmlns="http://www.w3.org/2000/svg">
<path d="M8.1543 28H3.25L4.12891 23.2539L8.34766 23.2891C9.58984 23.3008 10.5508 23.0078 11.2305 22.4102C11.9102 21.8125 12.4082 21.0391 12.7246 20.0898C13.0527 19.1406 13.293 18.1445 13.4453 17.1016L13.9902 13.1992C14.084 12.625 14.1543 11.998 14.2012 11.3184C14.2598 10.6387 14.2422 9.99414 14.1484 9.38477C14.0547 8.76367 13.8145 8.25391 13.4277 7.85547C13.0527 7.44531 12.4609 7.22266 11.6523 7.1875L6.7832 7.16992L7.60938 2.40625L11.8633 2.42383C13.375 2.45898 14.6816 2.77539 15.7832 3.37305C16.8965 3.95898 17.7871 4.75586 18.4551 5.76367C19.1348 6.77148 19.5977 7.91406 19.8438 9.19141C20.1016 10.4688 20.1426 11.8105 19.9668 13.2168L19.4043 17.1367C19.1934 18.6484 18.7949 20.0664 18.209 21.3906C17.623 22.7148 16.8555 23.875 15.9062 24.8711C14.957 25.8672 13.832 26.6465 12.5312 27.209C11.2305 27.7598 9.77148 28.0234 8.1543 28ZM11.1426 2.40625L6.69531 28H0.859375L5.27148 2.40625H11.1426ZM28.8613 23.2188L30.1797 14.7812C30.2031 14.4766 30.2324 14.1777 30.2676 13.8848C30.3145 13.5801 30.2793 13.3223 30.1621 13.1113C30.0566 12.8887 29.793 12.7832 29.3711 12.7949C28.9609 12.7832 28.668 12.8828 28.4922 13.0938C28.3281 13.293 28.2227 13.5508 28.1758 13.8672C28.1406 14.1836 28.0938 14.5 28.0352 14.8164L22.3926 14.8516C22.4395 13.8438 22.6738 12.9473 23.0957 12.1621C23.5293 11.377 24.0977 10.7207 24.8008 10.1934C25.5039 9.66602 26.2949 9.26758 27.1738 8.99805C28.0645 8.72852 28.9902 8.60547 29.9512 8.62891C31.2051 8.64063 32.3008 8.89844 33.2383 9.40234C34.1758 9.89453 34.8789 10.6094 35.3477 11.5469C35.8164 12.4844 35.9863 13.5977 35.8574 14.8867L34.5215 23.2188C34.416 23.9453 34.3398 24.6895 34.293 25.4512C34.2578 26.2129 34.334 26.9512 34.5215 27.666L34.5039 28L29.0371 28.0176C28.791 27.2559 28.668 26.4648 28.668 25.6445C28.6797 24.8242 28.7441 24.0156 28.8613 23.2188ZM30.6895 16.3809L30.1621 19.5449L28.9668 19.5273C28.5332 19.5391 28.1582 19.6387 27.8418 19.8262C27.5254 20.002 27.2617 20.2363 27.0508 20.5293C26.8516 20.8105 26.6934 21.1328 26.5762 21.4961C26.459 21.8594 26.377 22.2402 26.3301 22.6387C26.2832 22.8965 26.248 23.1484 26.2246 23.3945C26.2129 23.6289 26.2539 23.8281 26.3477 23.9922C26.4414 24.1445 26.6582 24.2207 26.998 24.2207C27.3496 24.2207 27.6719 24.1387 27.9648 23.9746C28.2578 23.8105 28.5039 23.5996 28.7031 23.3418C28.9023 23.084 29.0254 22.791 29.0723 22.4629L29.4062 24.8535C29.1836 25.2988 28.9609 25.7324 28.7383 26.1543C28.5156 26.5762 28.2637 26.957 27.9824 27.2969C27.7012 27.6367 27.3555 27.9004 26.9453 28.0879C26.5469 28.2871 26.043 28.3867 25.4336 28.3867C24.3906 28.3867 23.4941 28.1348 22.7441 27.6309C22.0059 27.127 21.4492 26.4648 21.0742 25.6445C20.7109 24.8242 20.5469 23.9043 20.582 22.8848C20.6172 21.7246 20.875 20.7285 21.3555 19.8965C21.8477 19.0645 22.4922 18.3906 23.2891 17.875C24.0859 17.3594 24.9707 16.9785 25.9434 16.7324C26.916 16.4863 27.9297 16.3633 28.9844 16.3633L30.6895 16.3809ZM45.7539 8.98047L42.4668 28H36.8242L40.1289 8.98047H45.7539ZM40.709 4.16406C40.709 3.28516 41.0078 2.57031 41.6055 2.01953C42.2031 1.46875 42.9238 1.1875 43.7676 1.17578C44.5996 1.16406 45.3086 1.42188 45.8945 1.94922C46.4922 2.46484 46.791 3.15039 46.791 4.00586C46.791 4.87305 46.4922 5.58203 45.8945 6.13281C45.2969 6.68359 44.5762 6.96484 43.7324 6.97656C42.9004 6.98828 42.1914 6.73633 41.6055 6.2207C41.0195 5.69336 40.7207 5.00781 40.709 4.16406ZM56.2832 1L51.6074 28H45.9648L50.6582 1H56.2832ZM60.0273 25.4863L66.5488 8.98047H72.7363L62.9277 30.8477C62.6348 31.5156 62.3008 32.1426 61.9258 32.7285C61.5625 33.3262 61.1406 33.8477 60.6602 34.293C60.1797 34.7383 59.6289 35.0898 59.0078 35.3477C58.3984 35.6055 57.6953 35.7285 56.8984 35.7168C56.4883 35.7285 56.0898 35.6934 55.7031 35.6113C55.3164 35.5293 54.9238 35.4297 54.5254 35.3125L55.0703 31.0938C55.1523 31.1055 55.2344 31.1113 55.3164 31.1113C55.3984 31.123 55.4805 31.1289 55.5625 31.1289C55.9844 31.1406 56.3535 31.0762 56.6699 30.9355C56.9863 30.8066 57.2617 30.6133 57.4961 30.3555C57.7305 30.1094 57.9297 29.8047 58.0938 29.4414L60.0273 25.4863ZM62.7344 8.98047L62.9629 22.5684L62.4883 28.5625L58.832 28.5449L56.8633 8.98047H62.7344ZM86.4297 2.40625L81.9824 28H76.0938L80.541 2.40625H86.4297ZM92.4414 2.40625L91.6152 7.16992H73.8438L74.6875 2.40625H92.4414ZM95.9043 23.2188L97.2227 14.7812C97.2461 14.4766 97.2754 14.1777 97.3105 13.8848C97.3574 13.5801 97.3223 13.3223 97.2051 13.1113C97.0996 12.8887 96.8359 12.7832 96.4141 12.7949C96.0039 12.7832 95.7109 12.8828 95.5352 13.0938C95.3711 13.293 95.2656 13.5508 95.2188 13.8672C95.1836 14.1836 95.1367 14.5 95.0781 14.8164L89.4355 14.8516C89.4824 13.8438 89.7168 12.9473 90.1387 12.1621C90.5723 11.377 91.1406 10.7207 91.8438 10.1934C92.5469 9.66602 93.3379 9.26758 94.2168 8.99805C95.1074 8.72852 96.0332 8.60547 96.9941 8.62891C98.248 8.64063 99.3438 8.89844 100.281 9.40234C101.219 9.89453 101.922 10.6094 102.391 11.5469C102.859 12.4844 103.029 13.5977 102.9 14.8867L101.564 23.2188C101.459 23.9453 101.383 24.6895 101.336 25.4512C101.301 26.2129 101.377 26.9512 101.564 27.666L101.547 28L96.0801 28.0176C95.834 27.2559 95.7109 26.4648 95.7109 25.6445C95.7227 24.8242 95.7871 24.0156 95.9043 23.2188ZM97.7324 16.3809L97.2051 19.5449L96.0098 19.5273C95.5762 19.5391 95.2012 19.6387 94.8848 19.8262C94.5684 20.002 94.3047 20.2363 94.0938 20.5293C93.8945 20.8105 93.7363 21.1328 93.6191 21.4961C93.502 21.8594 93.4199 22.2402 93.373 22.6387C93.3262 22.8965 93.291 23.1484 93.2676 23.3945C93.2559 23.6289 93.2969 23.8281 93.3906 23.9922C93.4844 24.1445 93.7012 24.2207 94.041 24.2207C94.3926 24.2207 94.7148 24.1387 95.0078 23.9746C95.3008 23.8105 95.5469 23.5996 95.7461 23.3418C95.9453 23.084 96.0684 22.791 96.1152 22.4629L96.4492 24.8535C96.2266 25.2988 96.0039 25.7324 95.7812 26.1543C95.5586 26.5762 95.3066 26.957 95.0254 27.2969C94.7441 27.6367 94.3984 27.9004 93.9883 28.0879C93.5898 28.2871 93.0859 28.3867 92.4766 28.3867C91.4336 28.3867 90.5371 28.1348 89.7871 27.6309C89.0488 27.127 88.4922 26.4648 88.1172 25.6445C87.7539 24.8242 87.5898 23.9043 87.625 22.8848C87.6602 21.7246 87.918 20.7285 88.3984 19.8965C88.8906 19.0645 89.5352 18.3906 90.332 17.875C91.1289 17.3594 92.0137 16.9785 92.9863 16.7324C93.959 16.4863 94.9727 16.3633 96.0273 16.3633L97.7324 16.3809ZM112.41 22.6914C112.48 22.3398 112.363 22.0352 112.059 21.7773C111.766 21.5195 111.42 21.291 111.021 21.0918C110.635 20.8926 110.342 20.7109 110.143 20.5469C109.521 20.2305 108.93 19.8906 108.367 19.5273C107.816 19.1523 107.33 18.7305 106.908 18.2617C106.486 17.793 106.158 17.2598 105.924 16.6621C105.689 16.0645 105.596 15.3848 105.643 14.623C105.678 13.6621 105.9 12.8066 106.311 12.0566C106.721 11.3066 107.26 10.6738 107.928 10.1582C108.607 9.64258 109.363 9.25 110.195 8.98047C111.039 8.71094 111.918 8.59375 112.832 8.62891C114.062 8.64063 115.164 8.88672 116.137 9.36719C117.121 9.83594 117.895 10.5215 118.457 11.4238C119.02 12.3145 119.301 13.3926 119.301 14.6582L113.693 14.6406C113.705 14.3125 113.711 13.9902 113.711 13.6738C113.711 13.3457 113.635 13.082 113.482 12.8828C113.33 12.6719 113.031 12.5664 112.586 12.5664C112.27 12.5781 111.994 12.6719 111.76 12.8477C111.525 13.0117 111.338 13.2285 111.197 13.498C111.057 13.7559 110.957 14.0254 110.898 14.3066C110.84 14.5527 110.846 14.7812 110.916 14.9922C110.998 15.1914 111.109 15.3789 111.25 15.5547C111.402 15.7188 111.572 15.8711 111.76 16.0117C111.959 16.1406 112.158 16.2578 112.357 16.3633C113.307 16.7617 114.197 17.2129 115.029 17.7168C115.873 18.209 116.559 18.8359 117.086 19.5977C117.613 20.3477 117.859 21.3203 117.824 22.5156C117.777 23.5117 117.525 24.3789 117.068 25.1172C116.623 25.8555 116.031 26.4648 115.293 26.9453C114.566 27.4258 113.764 27.7832 112.885 28.0176C112.006 28.2637 111.115 28.375 110.213 28.3516C108.982 28.3281 107.881 28.0527 106.908 27.5254C105.936 26.998 105.168 26.2656 104.605 25.3281C104.043 24.3906 103.75 23.2949 103.727 22.041L108.947 22.0586C108.936 22.4922 108.959 22.8848 109.018 23.2363C109.076 23.5879 109.217 23.8691 109.439 24.0801C109.674 24.291 110.043 24.3965 110.547 24.3965C110.91 24.3848 111.215 24.3086 111.461 24.168C111.707 24.0273 111.906 23.834 112.059 23.5879C112.223 23.3301 112.34 23.0312 112.41 22.6914ZM129.777 0.982422L125.084 28H119.459L124.152 0.982422H129.777ZM138.479 8.98047L129.936 19L125.734 23.0254L123.766 18.9473L127.51 14.4648L131.395 8.98047H138.479ZM129.039 28L126.982 19.123L131.465 16.1699L135.244 28H129.039Z" fill="#C7DFDE"/>
<circle cx="143" cy="25" r="4" fill="#35A852"/>
</svg>
