<svg width="456" height="411" viewBox="0 0 456 411" fill="none" xmlns="http://www.w3.org/2000/svg">
<g clip-path="url(#clip0_6_27)">
<path d="M283.321 238.833H116.293C110.629 238.827 105.199 236.574 101.193 232.57C97.1883 228.566 94.9354 223.137 94.929 217.474V21.3591C94.9354 15.6962 97.1883 10.2672 101.193 6.26299C105.199 2.25877 110.629 0.0063967 116.293 0H271.685L304.685 26.2968V217.474C304.678 223.137 302.425 228.566 298.42 232.57C294.415 236.574 288.985 238.827 283.321 238.833Z" fill="#E6E6E6"/>
<path d="M116.293 6.14882C112.259 6.15336 108.392 7.75733 105.54 10.6088C102.688 13.4603 101.084 17.3264 101.079 21.3591V217.474C101.084 221.507 102.688 225.373 105.54 228.224C108.392 231.076 112.259 232.68 116.293 232.684H283.321C287.354 232.68 291.221 231.076 294.073 228.224C296.925 225.373 298.53 221.507 298.534 217.474V29.259L269.534 6.14882H116.293Z" fill="#C7DFDE"/>
<path d="M250.834 63.1738H174.788C174.321 63.1738 173.859 63.0818 173.427 62.903C172.995 62.7243 172.603 62.4623 172.273 62.132C171.942 61.8017 171.68 61.4096 171.502 60.9781C171.323 60.5465 171.231 60.084 171.231 59.6169C171.231 59.1498 171.323 58.6873 171.502 58.2558C171.68 57.8243 171.942 57.4321 172.273 57.1019C172.603 56.7716 172.995 56.5096 173.427 56.3308C173.859 56.1521 174.321 56.0601 174.788 56.0601H250.834C251.301 56.0601 251.764 56.1521 252.195 56.3308C252.627 56.5096 253.019 56.7716 253.349 57.1019C253.68 57.4321 253.942 57.8243 254.121 58.2558C254.299 58.6873 254.391 59.1498 254.391 59.6169C254.391 60.084 254.299 60.5465 254.121 60.9781C253.942 61.4096 253.68 61.8017 253.349 62.132C253.019 62.4623 252.627 62.7243 252.195 62.903C251.764 63.0818 251.301 63.1738 250.834 63.1738Z" fill="white"/>
<path d="M265.509 75.1782H174.788C173.845 75.1782 172.94 74.8034 172.273 74.1364C171.606 73.4694 171.231 72.5647 171.231 71.6213C171.231 70.678 171.606 69.7733 172.273 69.1062C172.94 68.4392 173.845 68.0645 174.788 68.0645H265.509C266.453 68.0645 267.358 68.4392 268.025 69.1062C268.692 69.7733 269.067 70.678 269.067 71.6213C269.067 72.5647 268.692 73.4694 268.025 74.1364C267.358 74.8034 266.453 75.1782 265.509 75.1782Z" fill="white"/>
<path d="M250.834 116.971H174.788C173.845 116.971 172.94 116.596 172.273 115.929C171.606 115.262 171.231 114.358 171.231 113.414C171.231 112.471 171.606 111.566 172.273 110.899C172.94 110.232 173.845 109.857 174.788 109.857H250.834C251.777 109.857 252.682 110.232 253.349 110.899C254.017 111.566 254.391 112.471 254.391 113.414C254.391 114.358 254.017 115.262 253.349 115.929C252.682 116.596 251.777 116.971 250.834 116.971Z" fill="white"/>
<path d="M265.509 128.976H174.788C173.845 128.976 172.94 128.601 172.273 127.934C171.606 127.267 171.231 126.362 171.231 125.419C171.231 124.475 171.606 123.571 172.273 122.904C172.94 122.237 173.845 121.862 174.788 121.862H265.509C266.453 121.862 267.358 122.237 268.025 122.904C268.692 123.571 269.067 124.475 269.067 125.419C269.067 126.362 268.692 127.267 268.025 127.934C267.358 128.601 266.453 128.976 265.509 128.976Z" fill="white"/>
<path d="M250.834 170.769H174.788C173.845 170.769 172.94 170.394 172.273 169.727C171.606 169.06 171.231 168.155 171.231 167.212C171.231 166.268 171.606 165.364 172.273 164.697C172.94 164.03 173.845 163.655 174.788 163.655H250.834C251.777 163.655 252.682 164.03 253.349 164.697C254.017 165.364 254.391 166.268 254.391 167.212C254.391 168.155 254.017 169.06 253.349 169.727C252.682 170.394 251.777 170.769 250.834 170.769Z" fill="white"/>
<path d="M265.509 182.773H174.788C173.845 182.773 172.94 182.398 172.273 181.731C171.606 181.064 171.231 180.159 171.231 179.216C171.231 178.273 171.606 177.368 172.273 176.701C172.94 176.034 173.845 175.659 174.788 175.659H265.509C266.453 175.659 267.358 176.034 268.025 176.701C268.692 177.368 269.067 178.273 269.067 179.216C269.067 180.159 268.692 181.064 268.025 181.731C267.358 182.398 266.453 182.773 265.509 182.773Z" fill="white"/>
<path d="M143.121 78.1906C150.066 78.1906 155.696 72.5622 155.696 65.6191C155.696 58.6761 150.066 53.0476 143.121 53.0476C136.177 53.0476 130.547 58.6761 130.547 65.6191C130.547 72.5622 136.177 78.1906 143.121 78.1906Z" fill="#35A852"/>
<path d="M141.875 70.4148C141.592 70.4153 141.317 70.3238 141.091 70.1541L141.077 70.1436L138.121 67.8835C137.845 67.6715 137.665 67.3586 137.619 67.0136C137.574 66.6685 137.667 66.3196 137.879 66.0434C138.091 65.7672 138.404 65.5864 138.749 65.5406C139.094 65.4949 139.443 65.588 139.719 65.7995L141.633 67.267L146.157 61.3674C146.262 61.2307 146.392 61.1159 146.542 61.0296C146.691 60.9434 146.856 60.8874 147.027 60.8648C147.197 60.8423 147.371 60.8536 147.538 60.8981C147.704 60.9426 147.86 61.0195 147.997 61.1244L147.997 61.1247L147.969 61.1637L147.998 61.1247C148.274 61.3368 148.455 61.6496 148.5 61.9947C148.546 62.3397 148.453 62.6887 148.241 62.9651L142.921 69.9012C142.798 70.061 142.64 70.1903 142.458 70.2791C142.277 70.3679 142.078 70.4138 141.876 70.4132L141.875 70.4148Z" fill="white"/>
<path d="M144.416 131.988C151.361 131.988 156.99 126.36 156.99 119.417C156.99 112.473 151.361 106.845 144.416 106.845C137.471 106.845 131.842 112.473 131.842 119.417C131.842 126.36 137.471 131.988 144.416 131.988Z" fill="#CCCCCC"/>
<path d="M143.121 185.785C150.066 185.785 155.696 180.157 155.696 173.214C155.696 166.271 150.066 160.642 143.121 160.642C136.177 160.642 130.547 166.271 130.547 173.214C130.547 180.157 136.177 185.785 143.121 185.785Z" fill="#CCCCCC"/>
<path d="M304.042 27.1431H278.192C276.305 27.1431 274.496 26.3936 273.161 25.0596C271.827 23.7255 271.077 21.9161 271.077 20.0294V0.941548C271.077 0.857979 271.101 0.776096 271.145 0.7053C271.19 0.634505 271.253 0.577658 271.328 0.541277C271.404 0.504896 271.487 0.490454 271.571 0.499609C271.654 0.508765 271.732 0.541145 271.798 0.593038L304.318 26.35C304.391 26.4073 304.444 26.4857 304.469 26.5744C304.495 26.663 304.493 26.7575 304.462 26.8447C304.432 26.9319 304.375 27.0074 304.3 27.0609C304.225 27.1144 304.135 27.1431 304.042 27.1431Z" fill="#E6E6E6"/>
<path d="M129.057 275.579L30.2346 296.404C27.3788 297.002 24.4021 296.444 21.9577 294.851C19.5132 293.258 17.8006 290.76 17.1956 287.906L0.237885 207.474C-0.360719 204.619 0.197934 201.643 1.79128 199.199C3.38463 196.755 5.88255 195.043 8.73702 194.438L107.559 173.613C110.415 173.014 113.392 173.573 115.836 175.166C118.28 176.759 119.993 179.256 120.598 182.11L137.556 262.543C138.154 265.398 137.596 268.374 136.002 270.818C134.409 273.261 131.911 274.974 129.057 275.579Z" fill="#C7DFDE"/>
<path d="M129.057 275.579L30.2346 296.404C27.3788 297.002 24.4021 296.444 21.9577 294.851C19.5132 293.258 17.8006 290.76 17.1956 287.906L0.237885 207.474C-0.360719 204.619 0.197934 201.643 1.79128 199.199C3.38463 196.755 5.88255 195.043 8.73702 194.438L107.559 173.613C110.415 173.014 113.392 173.573 115.836 175.166C118.28 176.759 119.993 179.256 120.598 182.11L137.556 262.543C138.154 265.398 137.596 268.374 136.002 270.818C134.409 273.261 131.911 274.974 129.057 275.579ZM9.00407 195.705C6.48543 196.238 4.28139 197.749 2.8755 199.905C1.46961 202.062 0.976665 204.688 1.50483 207.207L18.4626 287.64C18.9964 290.158 20.5075 292.361 22.6644 293.767C24.8212 295.172 27.4477 295.665 29.9675 295.137L128.79 274.312C131.308 273.778 133.512 272.267 134.918 270.111C136.324 267.955 136.817 265.329 136.289 262.81L119.331 182.377C118.797 179.859 117.286 177.655 115.129 176.25C112.972 174.844 110.346 174.351 107.826 174.879L9.00407 195.705Z" fill="#3F3D56"/>
<path d="M101.419 200.134L51.5448 210.644C51.1084 210.745 50.6497 210.677 50.2616 210.453C49.8736 210.229 49.5849 209.866 49.4542 209.438C49.3944 209.215 49.3807 208.981 49.4141 208.752C49.4474 208.524 49.5271 208.304 49.6481 208.107C49.7692 207.91 49.9292 207.739 50.1183 207.606C50.3074 207.473 50.5217 207.38 50.748 207.332L101.517 196.633C103.499 197.75 102.873 199.827 101.418 200.134L101.419 200.134Z" fill="#CCCCCC"/>
<path d="M103.263 208.88L53.3888 219.39C52.9523 219.491 52.4937 219.423 52.1056 219.199C51.7175 218.975 51.4289 218.613 51.2982 218.184C51.2384 217.961 51.2247 217.728 51.258 217.499C51.2914 217.27 51.371 217.05 51.4921 216.853C51.6132 216.656 51.7732 216.486 51.9623 216.352C52.1514 216.219 52.3657 216.126 52.592 216.078L103.361 205.379C105.343 206.496 104.717 208.574 103.262 208.88L103.263 208.88Z" fill="#CCCCCC"/>
<path d="M43.6571 226.642L28.4359 229.85C27.9389 229.954 27.4207 229.857 26.9952 229.579C26.5697 229.302 26.2716 228.867 26.1664 228.371L22.3803 210.413C22.276 209.916 22.3732 209.398 22.6506 208.972C22.9279 208.547 23.3628 208.249 23.8596 208.144L39.0807 204.936C39.5778 204.832 40.0959 204.929 40.5213 205.206C40.9468 205.484 41.2449 205.918 41.3503 206.415L45.1364 224.373C45.2407 224.87 45.1434 225.388 44.8661 225.813C44.5887 226.239 44.1539 226.537 43.6571 226.642V226.642Z" fill="#CCCCCC"/>
<path d="M106.893 226.818L30.7763 242.859C30.3399 242.96 29.8813 242.892 29.4932 242.668C29.1051 242.444 28.8165 242.082 28.6857 241.653C28.6259 241.43 28.6122 241.196 28.6456 240.967C28.6789 240.739 28.7586 240.519 28.8796 240.322C29.0007 240.125 29.1607 239.954 29.3498 239.821C29.5389 239.688 29.7532 239.595 29.9796 239.547L106.992 223.318C108.974 224.435 108.348 226.512 106.893 226.818Z" fill="#CCCCCC"/>
<path d="M108.738 235.567L32.6208 251.608C32.1844 251.709 31.7258 251.641 31.3377 251.417C30.9496 251.193 30.661 250.83 30.5302 250.402C30.4704 250.178 30.4568 249.945 30.4901 249.716C30.5235 249.487 30.6031 249.268 30.7242 249.071C30.8452 248.874 31.0052 248.703 31.1943 248.57C31.3834 248.437 31.5977 248.343 31.8241 248.296L108.837 232.067C110.819 233.183 110.192 235.261 108.738 235.567Z" fill="#CCCCCC"/>
<path d="M110.581 244.31L34.4642 260.351C34.0277 260.452 33.5691 260.384 33.181 260.16C32.7929 259.936 32.5043 259.573 32.3735 259.145C32.3137 258.922 32.3001 258.688 32.3334 258.459C32.3668 258.231 32.4464 258.011 32.5675 257.814C32.6886 257.617 32.8485 257.446 33.0376 257.313C33.2268 257.18 33.441 257.086 33.6674 257.039L110.68 240.81C112.662 241.927 112.036 244.004 110.581 244.31Z" fill="#CCCCCC"/>
<path d="M112.426 253.058L36.3085 269.099C35.8721 269.2 35.4135 269.132 35.0254 268.908C34.6373 268.684 34.3487 268.322 34.2179 267.893C34.1581 267.67 34.1445 267.436 34.1778 267.208C34.2111 266.979 34.2908 266.759 34.4119 266.562C34.5329 266.365 34.6929 266.194 34.882 266.061C35.0711 265.928 35.2854 265.835 35.5118 265.787L112.524 249.558C114.507 250.675 113.88 252.752 112.426 253.058Z" fill="#CCCCCC"/>
<path d="M114.269 261.802L38.152 277.843C37.7155 277.944 37.2569 277.876 36.8688 277.652C36.4807 277.428 36.1922 277.065 36.0614 276.637C36.0016 276.413 35.9879 276.18 36.0213 275.951C36.0546 275.722 36.1342 275.503 36.2553 275.306C36.3764 275.108 36.5364 274.938 36.7255 274.805C36.9146 274.672 37.1289 274.578 37.3552 274.531L114.368 258.302C116.35 259.418 115.723 261.496 114.269 261.802Z" fill="#CCCCCC"/>
<path d="M127.706 221.759C127.533 222.073 127.385 222.4 127.263 222.737L96.1019 230.468L90.681 224.861L81.1481 231.934L89.78 242.792C90.4773 243.669 91.4404 244.297 92.5248 244.58C93.6091 244.864 94.7561 244.788 95.7936 244.364L129.607 230.55C130.718 231.368 132.052 231.828 133.431 231.87C134.811 231.911 136.17 231.531 137.329 230.782C138.487 230.032 139.39 228.947 139.916 227.672C140.443 226.397 140.569 224.991 140.277 223.643C139.986 222.294 139.29 221.066 138.284 220.123C137.277 219.179 136.007 218.564 134.642 218.359C133.277 218.155 131.883 218.371 130.644 218.978C129.405 219.585 128.38 220.555 127.706 221.759L127.706 221.759Z" fill="#A0616A"/>
<path d="M21.3408 290.556C22.3123 290.256 23.2062 289.747 23.9595 289.065C24.7128 288.382 25.3072 287.542 25.7009 286.605C26.0946 285.668 26.278 284.656 26.2381 283.64C26.1982 282.624 25.936 281.63 25.4701 280.726L46.9145 221.136L32.0221 218.498L15.6258 277.902C14.1595 278.786 13.0683 280.176 12.5588 281.81C12.0493 283.443 12.157 285.207 12.8615 286.767C13.5659 288.327 14.8182 289.574 16.381 290.273C17.9438 290.971 19.7085 291.072 21.3408 290.556Z" fill="#A0616A"/>
<path d="M44.191 231.714L29.4871 226.072C29.0687 225.912 28.6899 225.663 28.3763 225.343C28.0628 225.023 27.822 224.639 27.6703 224.217C27.5185 223.796 27.4595 223.346 27.4971 222.9C27.5347 222.453 27.6681 222.02 27.8882 221.63L35.6019 207.957C36.4357 205.822 38.0823 204.104 40.1807 203.181C42.2791 202.258 44.658 202.204 46.796 203.031C48.9339 203.859 50.6565 205.5 51.5859 207.595C52.5154 209.691 52.576 212.069 51.7543 214.209L48.352 229.482C48.2544 229.919 48.0637 230.33 47.7929 230.687C47.5221 231.044 47.1776 231.339 46.7827 231.551C46.3878 231.762 45.9519 231.887 45.5047 231.915C45.0575 231.943 44.6094 231.875 44.191 231.714V231.714Z" fill="#35A852"/>
<path d="M77.3798 402.434L85.3168 402.434L89.0924 371.827L77.3785 371.828L77.3798 402.434Z" fill="#A0616A"/>
<path d="M75.3551 399.844L90.9856 399.843H90.9863C92.2944 399.843 93.5897 400.101 94.7982 400.601C96.0068 401.101 97.1049 401.835 98.0299 402.76C98.9548 403.685 99.6886 404.782 100.189 405.991C100.69 407.199 100.947 408.494 100.947 409.802V410.125L75.3556 410.126L75.3551 399.844Z" fill="#2F2E41"/>
<path d="M32.7096 402.434L40.6466 402.434L44.4222 371.827L32.7083 371.828L32.7096 402.434Z" fill="#A0616A"/>
<path d="M30.6849 399.844L46.3154 399.843H46.3161C47.6242 399.843 48.9195 400.101 50.128 400.601C51.3366 401.101 52.4347 401.835 53.3597 402.76C54.2847 403.685 55.0184 404.782 55.519 405.991C56.0196 407.199 56.2772 408.494 56.2772 409.802V410.125L30.6854 410.126L30.6849 399.844Z" fill="#2F2E41"/>
<path d="M41.0301 390.115H30.986C30.5918 390.115 30.2017 390.035 29.8393 389.88C29.4769 389.725 29.1498 389.498 28.8777 389.213C28.6057 388.927 28.3944 388.59 28.2566 388.221C28.1188 387.851 28.0573 387.458 28.076 387.064L32.8469 284.585L33.1476 284.577L81.6498 283.313L91.1409 385.851C91.1774 386.235 91.1371 386.623 91.0223 386.992C90.9075 387.36 90.7206 387.703 90.4723 387.998C90.2241 388.294 89.9195 388.538 89.5763 388.715C89.233 388.892 88.858 388.999 88.4731 389.029L77.1914 389.931C76.4827 389.988 75.7778 389.783 75.2094 389.356C74.641 388.929 74.2483 388.309 74.1052 387.613L59.6746 314.619C59.6352 314.397 59.5176 314.197 59.3431 314.055C59.1686 313.912 58.9488 313.837 58.7236 313.843H58.7196C58.4937 313.838 58.2734 313.914 58.0991 314.058C57.9248 314.202 57.8081 314.404 57.7704 314.627L43.8885 387.765C43.7571 388.427 43.4005 389.023 42.8793 389.451C42.3582 389.879 41.7048 390.114 41.0301 390.115Z" fill="#2F2E41"/>
<path d="M59.4289 193.186C68.2105 193.186 75.3295 186.069 75.3295 177.289C75.3295 168.51 68.2105 161.392 59.4289 161.392C50.6472 161.392 43.5282 168.51 43.5282 177.289C43.5282 186.069 50.6472 193.186 59.4289 193.186Z" fill="#A0616A"/>
<path d="M54.0972 296.594C46.5186 296.594 38.7343 294.603 32.2813 288.714C31.9379 288.403 31.6728 288.015 31.5075 287.582C31.3422 287.149 31.2813 286.683 31.3299 286.223C32.0206 280.018 35.3711 247.983 33.4842 226.583C33.116 222.586 33.682 218.558 35.1376 214.817C36.5932 211.076 38.8985 207.725 41.8716 205.027C44.7926 202.335 48.2993 200.359 52.115 199.255C55.9307 198.15 59.9509 197.947 63.8585 198.662H63.8587C64.0567 198.697 64.2546 198.735 64.4528 198.773C77.1829 201.236 86.0278 213.014 85.027 226.171C83.5665 245.368 82.2574 271.335 84.313 286.02C84.3982 286.621 84.2933 287.233 84.013 287.772C83.7326 288.31 83.2909 288.747 82.7497 289.021C78.0724 291.384 66.3537 296.594 54.0972 296.594Z" fill="#35A852"/>
<path d="M74.8457 232.858C74.4726 232.61 74.1574 232.284 73.9217 231.903C73.686 231.522 73.5354 231.095 73.48 230.65L71.5428 215.123C70.9278 212.915 71.2138 210.553 72.3379 208.555C73.4621 206.557 75.3327 205.087 77.5397 204.466C79.7466 203.845 82.1098 204.124 84.1111 205.242C86.1125 206.361 87.5886 208.227 88.2159 210.431L94.5967 224.775C94.7788 225.184 94.8705 225.628 94.8656 226.076C94.8606 226.524 94.7592 226.966 94.5681 227.371C94.377 227.776 94.1009 228.136 93.7584 228.425C93.4159 228.714 93.0151 228.925 92.5834 229.045L77.4103 233.267C76.9785 233.387 76.5259 233.413 76.0833 233.342C75.6407 233.272 75.2186 233.107 74.8457 232.858Z" fill="#35A852"/>
<path d="M53.878 192.962C52.373 192.99 50.8774 192.719 49.4775 192.166C48.8616 191.929 48.2222 191.733 47.6075 191.496C42.178 189.399 38.6014 183.618 38.4733 177.8C38.3452 171.982 41.3588 166.335 45.8336 162.614C50.3085 158.893 56.1045 156.982 61.9083 156.54C68.16 156.065 75.1995 157.65 78.6929 162.855C79.6227 164.24 80.273 165.921 79.7221 167.594C79.557 168.099 79.2623 168.552 78.8673 168.907C77.3072 170.294 75.7519 169.251 74.1615 169.159C71.9756 169.032 70.0122 170.801 69.3066 172.873C68.6009 174.946 68.9115 177.227 69.4813 179.341C69.9154 180.613 70.189 181.934 70.2959 183.273C70.3419 183.945 70.2155 184.617 69.9288 185.227C69.642 185.836 69.2044 186.362 68.6574 186.755C67.2914 187.58 65.4976 187.102 64.1308 186.278C62.7641 185.454 61.5831 184.308 60.1068 183.702C58.6304 183.095 56.647 183.23 55.7877 184.575C55.5146 185.064 55.3298 185.597 55.2417 186.151C54.4713 189.66 54.6484 189.453 53.878 192.962V192.962Z" fill="#2F2E41"/>
<path d="M438.941 277.428L350.858 326.824C348.312 328.248 345.304 328.604 342.495 327.814C339.686 327.024 337.306 325.153 335.875 322.61L295.653 250.918C294.228 248.372 293.872 245.366 294.662 242.557C295.452 239.749 297.324 237.369 299.867 235.939L387.95 186.543C390.497 185.119 393.504 184.762 396.313 185.552C399.122 186.342 401.503 188.214 402.933 190.757L443.156 262.448C444.58 264.994 444.937 268.001 444.147 270.809C443.356 273.618 441.484 275.998 438.941 277.428Z" fill="#C7DFDE"/>
<path d="M438.941 277.428L350.858 326.824C348.312 328.248 345.304 328.604 342.495 327.814C339.686 327.024 337.306 325.153 335.875 322.61L295.653 250.918C294.228 248.372 293.872 245.366 294.662 242.557C295.452 239.749 297.324 237.369 299.867 235.939L387.95 186.543C390.497 185.119 393.504 184.762 396.313 185.552C399.122 186.342 401.503 188.214 402.933 190.757L443.156 262.448C444.58 264.994 444.937 268.001 444.147 270.809C443.356 273.618 441.484 275.998 438.941 277.428ZM300.501 237.068C298.257 238.33 296.605 240.43 295.908 242.908C295.211 245.386 295.525 248.039 296.782 250.285L337.005 321.977C338.267 324.22 340.367 325.872 342.846 326.569C345.324 327.266 347.978 326.952 350.225 325.695L438.308 276.299C440.552 275.037 442.204 272.937 442.901 270.459C443.598 267.981 443.283 265.328 442.026 263.082L401.804 191.39C400.542 189.146 398.441 187.495 395.963 186.798C393.484 186.101 390.83 186.415 388.584 187.672L300.501 237.068Z" fill="#3F3D56"/>
<path d="M390.017 213.686L345.563 238.616C345.177 238.843 344.719 238.915 344.281 238.817C343.844 238.72 343.46 238.46 343.207 238.09C343.084 237.894 343.001 237.676 342.964 237.447C342.928 237.219 342.938 236.986 342.995 236.761C343.051 236.537 343.153 236.327 343.294 236.143C343.434 235.959 343.611 235.806 343.813 235.693L389.064 210.316C391.29 210.79 391.313 212.96 390.017 213.687L390.017 213.686Z" fill="#CCCCCC"/>
<path d="M394.391 221.482L349.937 246.412C349.55 246.639 349.092 246.711 348.655 246.613C348.218 246.515 347.834 246.255 347.581 245.886C347.457 245.69 347.375 245.472 347.338 245.243C347.301 245.015 347.312 244.781 347.368 244.557C347.425 244.333 347.527 244.123 347.667 243.939C347.808 243.755 347.985 243.602 348.186 243.489L393.438 218.112C395.664 218.586 395.687 220.756 394.39 221.483L394.391 221.482Z" fill="#CCCCCC"/>
<path d="M342.817 256.24L329.25 263.848C328.807 264.096 328.283 264.158 327.794 264.02C327.305 263.883 326.891 263.557 326.642 263.114L317.662 247.108C317.414 246.665 317.352 246.141 317.489 245.653C317.627 245.164 317.953 244.749 318.395 244.501L331.962 236.892C332.406 236.645 332.929 236.583 333.418 236.72C333.907 236.858 334.321 237.183 334.57 237.626L343.551 253.632C343.799 254.075 343.861 254.599 343.723 255.088C343.586 255.576 343.26 255.991 342.817 256.24L342.817 256.24Z" fill="#CCCCCC"/>
<path d="M403.217 237.517L335.372 275.564C334.986 275.791 334.527 275.863 334.09 275.765C333.653 275.667 333.269 275.407 333.016 275.037C332.892 274.842 332.81 274.624 332.773 274.395C332.736 274.167 332.747 273.933 332.803 273.709C332.86 273.485 332.962 273.274 333.103 273.091C333.243 272.907 333.42 272.754 333.622 272.641L402.265 234.146C404.49 234.62 404.513 236.79 403.217 237.517Z" fill="#CCCCCC"/>
<path d="M407.592 245.315L339.747 283.362C339.361 283.589 338.903 283.661 338.465 283.563C338.028 283.465 337.644 283.205 337.391 282.835C337.267 282.64 337.185 282.422 337.148 282.193C337.112 281.965 337.122 281.731 337.179 281.507C337.235 281.283 337.337 281.072 337.478 280.889C337.618 280.705 337.795 280.552 337.997 280.439L406.64 241.944C408.866 242.418 408.888 244.588 407.592 245.315V245.315Z" fill="#CCCCCC"/>
<path d="M411.965 253.108L344.119 291.155C343.733 291.382 343.275 291.454 342.838 291.356C342.4 291.258 342.016 290.998 341.764 290.628C341.64 290.433 341.557 290.215 341.52 289.986C341.484 289.758 341.494 289.524 341.551 289.3C341.607 289.076 341.709 288.865 341.85 288.682C341.99 288.498 342.167 288.345 342.369 288.232L411.012 249.737C413.238 250.211 413.261 252.381 411.965 253.108Z" fill="#CCCCCC"/>
<path d="M416.339 260.905L348.494 298.952C348.108 299.179 347.65 299.251 347.212 299.153C346.775 299.056 346.391 298.796 346.138 298.426C346.015 298.231 345.932 298.012 345.895 297.784C345.859 297.555 345.869 297.322 345.926 297.097C345.982 296.873 346.084 296.663 346.225 296.479C346.365 296.296 346.542 296.143 346.744 296.029L415.387 257.535C417.613 258.008 417.636 260.178 416.339 260.905H416.339Z" fill="#CCCCCC"/>
<path d="M420.712 268.699L352.866 306.746C352.48 306.973 352.022 307.045 351.585 306.947C351.148 306.849 350.764 306.589 350.511 306.219C350.387 306.024 350.304 305.806 350.268 305.577C350.231 305.349 350.241 305.115 350.298 304.891C350.355 304.667 350.456 304.456 350.597 304.273C350.738 304.089 350.914 303.936 351.116 303.823L419.76 265.328C421.985 265.802 422.008 267.972 420.712 268.699V268.699Z" fill="#CCCCCC"/>
<path d="M408.875 297.904C409.245 297.09 409.431 296.204 409.421 295.309C409.411 294.415 409.205 293.533 408.817 292.727C408.43 291.921 407.87 291.209 407.178 290.643C406.485 290.076 405.677 289.668 404.81 289.448L402.965 267.782L394.091 274.78L397.204 294.282C396.93 295.763 397.209 297.293 397.988 298.582C398.767 299.871 399.992 300.83 401.43 301.276C402.869 301.723 404.421 301.626 405.794 301.005C407.166 300.383 408.262 299.28 408.875 297.904Z" fill="#FFB8B8"/>
<path d="M403.132 287.179L395.763 288.057C395.389 288.102 395.009 288.069 394.648 287.96C394.287 287.851 393.952 287.669 393.665 287.425C393.378 287.181 393.144 286.88 392.978 286.541C392.813 286.203 392.719 285.833 392.702 285.457L391.628 260.601L377.659 222.449C377.099 221.265 376.844 219.96 376.916 218.653C376.989 217.345 377.387 216.076 378.074 214.962C378.416 214.423 378.808 213.918 379.244 213.452C380.104 212.526 381.175 211.822 382.365 211.399C383.556 210.977 384.831 210.848 386.082 211.024C387.371 211.196 388.6 211.672 389.668 212.414C390.736 213.156 391.611 214.141 392.222 215.289L401.332 234.374C405.142 242.357 406.941 251.151 406.572 259.988L405.544 284.575C405.518 285.219 405.265 285.832 404.83 286.307C404.395 286.783 403.807 287.09 403.169 287.174L403.132 287.179Z" fill="#35A852"/>
<path d="M429.304 394.601L422.471 397.599L407.652 372.679L417.736 368.253L429.304 394.601Z" fill="#FFB8B8"/>
<path d="M433.954 400.458L411.923 410.126L411.801 409.848C411.306 408.722 411.039 407.51 411.013 406.281C410.987 405.051 411.204 403.829 411.651 402.683C412.097 401.538 412.765 400.492 413.616 399.604C414.468 398.717 415.485 398.006 416.611 397.511L416.612 397.511L430.068 391.606L433.954 400.458Z" fill="#2F2E41"/>
<path d="M337.575 402.895H330.113L326.564 374.12L337.577 374.121L337.575 402.895Z" fill="#FFB8B8"/>
<path d="M339.478 410.126L315.418 410.125V409.821C315.418 408.592 315.66 407.374 316.131 406.238C316.602 405.102 317.291 404.07 318.161 403.201C319.031 402.331 320.063 401.642 321.199 401.171C322.335 400.701 323.553 400.459 324.783 400.459H324.784L339.478 400.459L339.478 410.126Z" fill="#2F2E41"/>
<path d="M410.223 393.058L368.656 300.319C368.581 300.145 368.454 299.999 368.292 299.9C368.13 299.802 367.942 299.756 367.753 299.77C367.564 299.783 367.384 299.855 367.238 299.975C367.091 300.095 366.986 300.258 366.936 300.441L341.61 390.015C341.443 390.642 341.057 391.189 340.523 391.557C339.988 391.925 339.34 392.09 338.694 392.022L324.862 390.639C324.15 390.564 323.494 390.215 323.035 389.665C322.576 389.115 322.35 388.407 322.404 387.693C326.803 332.986 333.738 281.353 354.515 247.552L354.626 247.372L386.053 253.533L428.009 387.107C428.216 387.795 428.146 388.537 427.813 389.174C427.48 389.811 426.911 390.292 426.228 390.514L413.576 394.58C412.928 394.791 412.224 394.752 411.604 394.47C410.983 394.188 410.491 393.684 410.223 393.058Z" fill="#2F2E41"/>
<path d="M369.816 200.046C378.072 200.046 384.764 193.355 384.764 185.101C384.764 176.847 378.072 170.156 369.816 170.156C361.56 170.156 354.867 176.847 354.867 185.101C354.867 193.355 361.56 200.046 369.816 200.046Z" fill="#FFB8B8"/>
<path d="M352.584 250.139L352.393 250.1L352.348 249.911C350.334 241.409 350.286 232.131 352.205 222.335C353.179 217.328 355.889 212.826 359.857 209.62C363.825 206.414 368.797 204.711 373.898 204.811C379.433 204.923 384.715 207.146 388.665 211.024C392.614 214.902 394.932 220.142 395.145 225.672C395.785 242.521 388.898 257.129 388.829 257.274L388.726 257.488L352.584 250.139Z" fill="#35A852"/>
<path d="M312.51 278.572C313.395 278.441 314.241 278.118 314.988 277.625C315.734 277.132 316.364 276.482 316.832 275.719C317.3 274.957 317.595 274.101 317.696 273.212C317.798 272.323 317.703 271.423 317.419 270.575L334.637 257.29L323.946 253.623L309.235 266.801C307.841 267.373 306.706 268.436 306.044 269.788C305.382 271.141 305.239 272.69 305.643 274.141C306.047 275.592 306.969 276.844 308.234 277.661C309.5 278.478 311.022 278.802 312.51 278.572V278.572Z" fill="#FFB8B8"/>
<path d="M321.915 268.553C321.354 268.884 320.694 269.004 320.052 268.891C319.411 268.778 318.831 268.439 318.418 267.936L313.688 262.219C313.448 261.928 313.27 261.591 313.166 261.229C313.062 260.866 313.034 260.486 313.084 260.113C313.133 259.739 313.26 259.38 313.455 259.057C313.65 258.734 313.909 258.456 314.217 258.238L334.534 243.873L359.048 211.469C359.74 210.357 360.699 209.436 361.838 208.789C362.977 208.141 364.259 207.789 365.569 207.763C366.207 207.759 366.844 207.814 367.472 207.929C368.716 208.15 369.888 208.668 370.888 209.44C371.888 210.212 372.687 211.214 373.216 212.361C373.77 213.537 374.035 214.828 373.99 216.127C373.944 217.426 373.59 218.696 372.955 219.83L354.804 249.22L354.764 249.284L321.915 268.553Z" fill="#35A852"/>
<path d="M372.489 184.174C371.387 182.362 368.956 181.85 366.845 182.057C364.734 182.263 362.681 183.005 360.56 182.989C354.671 182.943 350.125 175.767 352.601 170.424C354.632 166.043 359.703 164.119 364.291 162.609C373.91 159.443 384.959 156.401 393.688 161.535C396.47 163.219 398.751 165.615 400.296 168.476C401.842 171.336 402.596 174.557 402.48 177.806C402.283 181.846 400.736 185.996 402.045 189.823C403.554 194.238 408.342 196.607 412.866 197.753C420.797 199.762 429.159 199.438 437.14 201.24C445.12 203.042 453.298 207.826 455.449 215.717C456.862 220.901 455.388 226.481 452.946 231.267C450.455 236.15 446.993 240.474 442.772 243.972C438.551 247.471 433.661 250.071 428.399 251.614C423.138 253.157 417.618 253.61 412.175 252.945C406.733 252.28 401.484 250.511 396.749 247.747C387.101 242.115 380.136 232.596 375.983 222.226C373.628 216.178 371.971 209.88 371.042 203.457C370.112 197.443 370.901 191.366 372.586 185.519C372.666 185.301 372.698 185.068 372.681 184.836C372.665 184.604 372.599 184.378 372.489 184.174Z" fill="#2F2E41"/>
</g>
<defs>
<clipPath id="clip0_6_27">
<rect width="456" height="411" fill="white"/>
</clipPath>
</defs>
</svg>
